<svg xmlns="http://www.w3.org/2000/svg" viewBox="7.84 22.95 340.38 36.25">       <path fill="#A97C73" d="M7.84,58.6l0-5.612c9.844-7.958,15.502-12.65,15.502-17.158c0-2.806-2.116-4.6-5.382-4.6c-2.438,0-4.278,0.828-4.278,0.828l-0.46,3.91l-4.83,0l-0.23-8.51s5.198-1.84,10.12-1.84c7.36,0,12.558,2.162,12.558,9.062c0,6.44-4.83,11.27-13.018,18.308l13.8,0l0,5.612l-23.782,0z M38.95946,58.6l0-5.612c9.844-7.958,15.502-12.65,15.502-17.158c0-2.806-2.116-4.6-5.382-4.6c-2.438,0-4.278,0.828-4.278,0.828l-0.46,3.91l-4.83,0l-0.23-8.51s5.198-1.84,10.12-1.84c7.36,0,12.558,2.162,12.558,9.062c0,6.44-4.83,11.27-13.018,18.308l13.8,0l0,5.612l-23.782,0z M92.15892,26.078l-0.322,5.382s-1.38-0.23-3.588-0.23c-9.89,0-10.258,9.108-10.258,9.108s3.266-1.978,7.176-1.978c5.612,0,10.12,3.22,10.12,9.66s-5.198,11.178-12.098,11.178c-8.142,0-12.42-6.118-12.42-14.168c0-11.04,5.52-19.412,17.25-19.412c2.714,0,4.14,0.46,4.14,0.46z M77.80692,45.398l0,1.104c0,5.06,2.484,7.038,5.336,7.038c2.898,0,4.876-1.84,4.876-4.83c0-3.128-1.656-4.922-4.968-4.922c-2.944,0-5.244,1.61-5.244,1.61z M118.03438,52.712l1.656,3.496c-2.254,1.656-4.83,2.852-7.82,2.852c-5.29,0-6.808-3.68-6.808-8.97l0-10.58l-4.278,0l0-4.462l4.278-0.598l0-6.348l6.9-1.242l0,7.59l6.44,0l0,5.06l-6.44,0l0,10.12c0,2.944,0.506,4.14,2.438,4.14c1.242,0,3.036-0.736,3.634-1.058z M137.37784,33.3c7.452,0,11.592,4.508,11.592,12.42c0,8.28-4.83,13.34-12.282,13.34c-7.498,0-11.73-3.91-11.73-12.65c0-8.28,4.922-13.11,12.42-13.11z M137.14784,38.82c-3.358,0-5.06,1.84-5.06,7.36c0,5.06,1.472,7.36,4.83,7.36c3.312,0,4.922-2.07,4.922-7.59c0-4.692-1.38-7.13-4.692-7.13z M167.8073,33.3c7.452,0,11.592,4.508,11.592,12.42c0,8.28-4.83,13.34-12.282,13.34c-7.498,0-11.73-3.91-11.73-12.65c0-8.28,4.922-13.11,12.42-13.11z M167.5773,38.82c-3.358,0-5.06,1.84-5.06,7.36c0,5.06,1.472,7.36,4.83,7.36c3.312,0,4.922-2.07,4.922-7.59c0-4.692-1.38-7.13-4.692-7.13z M195.75276,53.77l4.14,1.15l0,3.68l-14.766,0l0-3.68l3.68-1.15l0-25.852l-3.68-0.92l0-3.68l10.626-0.368l0,30.82z M209.20822,50.55l0.368,2.99s1.61,0.46,3.864,0.46c2.53,0,3.772-0.782,3.772-2.254c0-3.772-12.282-2.392-12.282-10.58c0-5.75,4.6-7.866,9.476-7.866c4.14,0,8.556,1.38,8.556,1.38l-0.184,6.9l-3.91,0l-0.69-2.76s-1.334-0.46-3.174-0.46c-1.978,0-3.174,0.828-3.174,2.346c0,3.726,12.282,2.116,12.282,10.074c0,5.29-4.278,8.28-10.58,8.28c-4.37,0-8.464-1.012-8.464-1.012l0-7.498l4.14,0z M231.90968,55.012c0-2.622,1.886-4.14,3.956-4.14c2.53,0,3.864,1.518,3.864,4.14c0,2.668-1.886,4.186-3.956,4.186c-2.53,0-3.864-1.518-3.864-4.186z M267.07714,51.102l2.3,4.048c-1.15,1.012-4.738,3.91-9.89,3.91c-7.59,0-11.96-4.692-11.96-12.512c0-8.188,4.6-13.248,12.65-13.248c3.956,0,8.05,1.61,8.05,1.61l-0.23,7.544l-4.14,0l-0.644-3.266s-1.334-0.368-3.174-0.368c-3.312,0-5.382,2.208-5.382,6.808c0,5.014,1.932,7.912,5.75,7.912c3.22,0,5.244-1.61,6.67-2.438z M287.2946,33.3c7.452,0,11.592,4.508,11.592,12.42c0,8.28-4.83,13.34-12.282,13.34c-7.498,0-11.73-3.91-11.73-12.65c0-8.28,4.922-13.11,12.42-13.11z M287.0646,38.82c-3.358,0-5.06,1.84-5.06,7.36c0,5.06,1.472,7.36,4.83,7.36c3.312,0,4.922-2.07,4.922-7.59c0-4.692-1.38-7.13-4.692-7.13z M348.22206,54.92l0,3.68l-12.466,0l0-3.68l2.438-1.15l0-10.948c0-2.53-0.736-3.772-2.668-3.772c-2.99,0-5.106,2.392-5.106,2.392l0,12.328l2.392,1.15l0,3.68l-11.684,0l0-3.68l2.392-1.15l0-10.948c0-2.53-0.644-3.772-2.622-3.772c-2.99,0-5.152,2.392-5.152,2.392l0,12.328l2.438,1.15l0,3.68l-12.88,0l0-3.68l3.542-1.15l0-14.95l-3.496-1.15l0-3.68l9.614-0.23l0.322,3.266s4.002-3.726,8.05-3.726c3.266,0,5.29,1.518,6.348,3.956c0.782-0.782,4.232-3.956,8.326-3.956c4.83,0,7.084,3.128,7.084,8.28l0,12.19z"></path>     </svg>